<svg width="36" height="36" viewBox="0 0 36 36" fill="none" xmlns="http://www.w3.org/2000/svg">
<path fill-rule="evenodd" clip-rule="evenodd" d="M12.1652 29.1876L22.3735 18.9749C23.1457 18.2032 23.5798 17.1565 23.5802 16.0648C23.5806 14.9732 23.1473 13.9261 22.3757 13.1539C21.6041 12.3817 20.5573 11.9477 19.4657 11.9473C18.3741 11.9469 17.327 12.3801 16.5548 13.1517L6.33624 23.3557C5.95321 23.7384 5.64933 24.1929 5.44193 24.693C5.23453 25.1932 5.12768 25.7293 5.12747 26.2708C5.12727 26.8123 5.23372 27.3485 5.44074 27.8488C5.64777 28.3492 5.95131 28.8038 6.33405 29.1868C6.71678 29.5699 7.17121 29.8737 7.67139 30.0811C8.17157 30.2885 8.7077 30.3954 9.24917 30.3956C9.79064 30.3958 10.3269 30.2894 10.8272 30.0823C11.3275 29.8753 11.7822 29.5703 12.1652 29.1876ZM16.5417 16.0626L19.4583 18.9792L20.9167 17.5209C21.1082 17.3294 21.2601 17.102 21.3637 16.8518C21.4674 16.6016 21.5207 16.3334 21.5207 16.0626C21.5207 15.7917 21.4674 15.5235 21.3637 15.2733C21.2601 15.0231 21.1082 14.7957 20.9167 14.6042C20.7251 14.4127 20.4978 14.2608 20.2476 14.1572C19.9973 14.0535 19.7292 14.0002 19.4583 14.0002C19.1875 14.0002 18.9193 14.0535 18.6691 14.1572C18.4189 14.2608 18.1915 14.4127 18 14.6042L16.5417 16.0626Z" fill="white"/>
<path d="M10.3569 7.16257C10.4531 6.80236 10.9635 6.80236 11.0598 7.16257L11.5833 9.09924C11.6 9.16071 11.6324 9.21675 11.6775 9.26178C11.7225 9.30682 11.7785 9.33927 11.84 9.35591L13.7767 9.87799C14.1369 9.97424 14.1369 10.4847 13.7767 10.5809L11.8385 11.1044C11.7771 11.1211 11.721 11.1535 11.676 11.1986C11.631 11.2436 11.5985 11.2996 11.5819 11.3611L11.0583 13.2963C10.9621 13.6565 10.4517 13.6565 10.3554 13.2963L9.83333 11.3597C9.81669 11.2982 9.78424 11.2421 9.73921 11.1971C9.69418 11.1521 9.63814 11.1196 9.57666 11.103L7.63854 10.5809C7.27979 10.4847 7.27979 9.97424 7.63854 9.87799L9.57812 9.35445C9.63959 9.33781 9.69564 9.30536 9.74067 9.26033C9.7857 9.21529 9.81815 9.15925 9.83479 9.09778L10.3569 7.16257ZM24.9402 5.70424C25.0365 5.34403 25.5469 5.34403 25.6431 5.70424L26.1652 7.6409C26.1818 7.70238 26.2143 7.75842 26.2593 7.80345C26.3044 7.84848 26.3604 7.88093 26.4219 7.89757L28.3585 8.41965C28.7187 8.5159 28.7187 9.02632 28.3585 9.12257L26.4219 9.64465C26.3604 9.66129 26.3044 9.69374 26.2593 9.73878C26.2143 9.78381 26.1818 9.83985 26.1652 9.90132L25.6431 11.838C25.5469 12.1982 25.0365 12.1982 24.9402 11.838L24.4167 9.90132C24.3999 9.83967 24.3672 9.78351 24.3219 9.73847C24.2766 9.69342 24.2203 9.66107 24.1585 9.64465L22.2219 9.12257C21.8631 9.02632 21.8631 8.5159 22.2219 8.41965L24.1585 7.89757C24.2203 7.88116 24.2766 7.8488 24.3219 7.80376C24.3672 7.75871 24.3999 7.70255 24.4167 7.6409L24.9402 5.70424ZM26.3985 18.8292C26.4948 18.469 27.0052 18.469 27.1015 18.8292L27.6235 20.7659C27.6402 20.8274 27.6726 20.8834 27.7177 20.9285C27.7627 20.9735 27.8187 21.0059 27.8802 21.0226L29.8169 21.5447C30.1771 21.6409 30.1771 22.1513 29.8169 22.2476L27.8802 22.7697C27.8187 22.7863 27.7627 22.8187 27.7177 22.8638C27.6726 22.9088 27.6402 22.9648 27.6235 23.0263L27.1015 24.963C27.0052 25.3232 26.4948 25.3232 26.3985 24.963L25.8765 23.0263C25.8597 22.9647 25.827 22.9085 25.7817 22.8635C25.7364 22.8184 25.6801 22.7861 25.6183 22.7697L23.6817 22.2476C23.3229 22.1513 23.3229 21.6409 23.6817 21.5447L25.6183 21.0226C25.6801 21.0062 25.7364 20.9738 25.7817 20.9288C25.827 20.8837 25.8597 20.8276 25.8765 20.7659L26.3985 18.8292Z" fill="white"/>
</svg>
