<svg width="24" height="25" viewBox="0 0 24 25" fill="none" xmlns="http://www.w3.org/2000/svg">
<path d="M7 3.22363H4C3.44772 3.22363 3 3.67135 3 4.22363V7.22363C3 7.77592 3.44772 8.22363 4 8.22363H7C7.55228 8.22363 8 7.77592 8 7.22363V4.22363C8 3.67135 7.55228 3.22363 7 3.22363Z" stroke="white" stroke-width="2" stroke-linecap="round" stroke-linejoin="round"/>
<path d="M20 3.22363H17C16.4477 3.22363 16 3.67135 16 4.22363V7.22363C16 7.77592 16.4477 8.22363 17 8.22363H20C20.5523 8.22363 21 7.77592 21 7.22363V4.22363C21 3.67135 20.5523 3.22363 20 3.22363Z" stroke="white" stroke-width="2" stroke-linecap="round" stroke-linejoin="round"/>
<path d="M7 16.2236H4C3.44772 16.2236 3 16.6713 3 17.2236V20.2236C3 20.7759 3.44772 21.2236 4 21.2236H7C7.55228 21.2236 8 20.7759 8 20.2236V17.2236C8 16.6713 7.55228 16.2236 7 16.2236Z" stroke="white" stroke-width="2" stroke-linecap="round" stroke-linejoin="round"/>
<path d="M21 16.2236H18C17.4696 16.2236 16.9609 16.4343 16.5858 16.8094C16.2107 17.1845 16 17.6932 16 18.2236V21.2236M21 21.2236V21.2336M12 7.22363V10.2236C12 10.7541 11.7893 11.2628 11.4142 11.6378C11.0391 12.0129 10.5304 12.2236 10 12.2236H7M3 12.2236H3.01M12 3.22363H12.01M12 16.2236V16.2336M16 12.2236H17M21 12.2236V12.2336M12 21.2236V20.2236" stroke="white" stroke-width="2" stroke-linecap="round" stroke-linejoin="round"/>
</svg>
