<svg width="36" height="36" viewBox="0 0 36 36" fill="none" xmlns="http://www.w3.org/2000/svg">
<path d="M19.1443 26.5268C19.2973 26.6793 19.4186 26.8604 19.5014 27.0598C19.5843 27.2592 19.6269 27.473 19.6269 27.689C19.6269 27.9049 19.5843 28.1187 19.5014 28.3181C19.4186 28.5175 19.2973 28.6986 19.1443 28.8511L18.3322 29.6632C16.7933 31.2021 14.7062 32.0666 12.5299 32.0666C10.3536 32.0666 8.26641 31.2021 6.72754 29.6632C5.18866 28.1243 4.32413 26.0371 4.32413 23.8608C4.32413 21.6845 5.18866 19.5974 6.72754 18.0585L10.0252 14.7622C11.5038 13.28 13.4932 12.4191 15.5858 12.3561C17.6785 12.2931 19.7161 13.0326 21.2812 14.4231C21.4428 14.5668 21.5745 14.7408 21.6689 14.9354C21.7632 15.1299 21.8183 15.3411 21.831 15.5569C21.8437 15.7728 21.8137 15.989 21.7429 16.1932C21.672 16.3975 21.5616 16.5858 21.418 16.7474C21.2743 16.9089 21.1003 17.0407 20.9057 17.135C20.7112 17.2293 20.5 17.2844 20.2842 17.2971C20.0683 17.3098 19.8521 17.2798 19.6479 17.209C19.4436 17.1381 19.2553 17.0277 19.0937 16.8841C18.1552 16.0505 16.9336 15.6071 15.6789 15.6445C14.4242 15.6818 13.2312 16.1972 12.3439 17.0851L9.04902 20.3772C8.12584 21.3004 7.6072 22.5525 7.6072 23.8581C7.6072 25.1637 8.12584 26.4158 9.04902 27.339C9.9722 28.2621 11.2243 28.7808 12.5299 28.7808C13.8355 28.7808 15.0876 28.2621 16.0107 27.339L16.8228 26.5268C16.9752 26.3743 17.1562 26.2533 17.3553 26.1707C17.5545 26.0882 17.768 26.0457 17.9836 26.0457C18.1992 26.0457 18.4127 26.0882 18.6119 26.1707C18.811 26.2533 18.992 26.3743 19.1443 26.5268ZM29.2725 7.11279C27.7323 5.57628 25.6456 4.71338 23.4701 4.71338C21.2946 4.71338 19.2079 5.57628 17.6678 7.11279L16.8557 7.9249C16.5475 8.23311 16.3743 8.65113 16.3743 9.08701C16.3743 9.52288 16.5475 9.94091 16.8557 10.2491C17.1639 10.5573 17.5819 10.7305 18.0178 10.7305C18.4536 10.7305 18.8717 10.5573 19.1799 10.2491L19.992 9.43701C20.9152 8.51383 22.1673 7.99519 23.4728 7.99519C24.7784 7.99519 26.0305 8.51383 26.9537 9.43701C27.8769 10.3602 28.3955 11.6123 28.3955 12.9179C28.3955 14.2234 27.8769 15.4755 26.9537 16.3987L23.6574 19.6964C22.7694 20.5839 21.5757 21.0985 20.3207 21.1348C19.0656 21.1712 17.8442 20.7265 16.9062 19.8919C16.7447 19.7483 16.5564 19.6379 16.3521 19.567C16.1479 19.4961 15.9316 19.4662 15.7158 19.4789C15.5 19.4916 15.2888 19.5467 15.0943 19.641C14.8997 19.7353 14.7257 19.867 14.582 20.0286C14.4384 20.1902 14.328 20.3785 14.2571 20.5827C14.1863 20.787 14.1563 21.0032 14.169 21.219C14.1817 21.4349 14.2368 21.6461 14.3311 21.8406C14.4254 22.0351 14.5572 22.2092 14.7187 22.3528C16.2828 23.7431 18.319 24.483 20.4107 24.4213C22.5024 24.3595 24.4914 23.5007 25.9707 22.0206L29.2684 18.7243C30.8067 17.1846 31.6711 15.0973 31.6719 12.9208C31.6726 10.7442 30.8097 8.65637 29.2725 7.11552V7.11279Z" fill="white"/>
</svg>
