<svg width="24" height="25" viewBox="0 0 24 25" fill="none" xmlns="http://www.w3.org/2000/svg">
<path d="M7 9.89063C7 9.1833 7.28099 8.50494 7.78115 8.00478C8.28131 7.50462 8.95967 7.22363 9.667 7.22363H18.333C18.6832 7.22363 19.03 7.29262 19.3536 7.42665C19.6772 7.56068 19.9712 7.75713 20.2189 8.00478C20.4665 8.25243 20.663 8.54644 20.797 8.87002C20.931 9.19359 21 9.5404 21 9.89063V18.5566C21 18.9069 20.931 19.2537 20.797 19.5772C20.663 19.9008 20.4665 20.1948 20.2189 20.4425C19.9712 20.6901 19.6772 20.8866 19.3536 21.0206C19.03 21.1546 18.6832 21.2236 18.333 21.2236H9.667C9.31676 21.2236 8.96996 21.1546 8.64638 21.0206C8.32281 20.8866 8.0288 20.6901 7.78115 20.4425C7.53349 20.1948 7.33704 19.9008 7.20301 19.5772C7.06898 19.2537 7 18.9069 7 18.5566V9.89063Z" stroke="white" stroke-width="2" stroke-linecap="round" stroke-linejoin="round"/>
<path d="M4.012 16.9606C3.70534 16.7858 3.45027 16.5331 3.27258 16.2281C3.09488 15.9231 3.00085 15.5766 3 15.2236V5.22363C3 4.12363 3.9 3.22363 5 3.22363H15C15.75 3.22363 16.158 3.60863 16.5 4.22363" stroke="white" stroke-width="2" stroke-linecap="round" stroke-linejoin="round"/>
</svg>
